<svg xmlns="http://www.w3.org/2000/svg" width="1120" height="740" viewBox="0 0 1120 740" role="img" aria-label="Figure 2. Post/Comment-Level Prevalence of Reaction-Oriented Concepts">
<rect width="100%" height="100%" fill="#FBF7EF"/>
<style>text{font-family: Georgia, Times, serif; fill:#2D2A26}.label{font-size:21px}.small{font-size:17px; fill:#5E5A54}.title{font-size:33px; font-weight:700}.subtitle{font-size:18px; fill:#6A655F}.pct{font-size:20px; font-weight:700}.axis{stroke:#D8CFC1; stroke-width:1}.tick{font-size:14px; fill:#7B756E}.legend{font-size:16px; fill:#5E5A54}</style>
<text class="title" x="48" y="48">Figure 2. Post/Comment-Level Prevalence of Reaction-Oriented Concepts</text>
<text class="subtitle" x="48" y="76">Percent of 2,121 analyzed post/comment segments with at least one positive label; procedural actions excluded except procedure anxiety.</text>
<line class="axis" x1="260.0" x2="260.0" y1="80" y2="642"/>
<text class="tick" x="260.0" y="696" text-anchor="middle">0.0%</text>
<line class="axis" x1="655.0" x2="655.0" y1="80" y2="642"/>
<text class="tick" x="655.0" y="696" text-anchor="middle">10.1%</text>
<line class="axis" x1="1050.0" x2="1050.0" y1="80" y2="642"/>
<text class="tick" x="1050.0" y="696" text-anchor="middle">20.2%</text>
<text class="label" x="48" y="121">Cancer Fear</text>
<rect x="260" y="103" width="790.0" height="27" rx="9" fill="#C37B2D"/>
<text class="pct" x="1062.0" y="123">20.18%</text>
<text class="small" x="1146.0" y="123">n=428</text>
<text class="label" x="48" y="167">Procedure Anxiety</text>
<rect x="260" y="149" width="640.5" height="27" rx="9" fill="#C37B2D"/>
<text class="pct" x="912.5" y="169">16.36%</text>
<text class="small" x="996.5" y="169">n=347</text>
<text class="label" x="48" y="213">Supplement Use</text>
<rect x="260" y="195" width="476.0" height="27" rx="9" fill="#4F8A7B"/>
<text class="pct" x="748.0" y="215">12.16%</text>
<text class="small" x="832.0" y="215">n=258</text>
<text class="label" x="48" y="259">Lifestyle Change</text>
<rect x="260" y="241" width="474.5" height="27" rx="9" fill="#4F8A7B"/>
<text class="pct" x="746.5" y="261">12.12%</text>
<text class="small" x="830.5" y="261">n=257</text>
<text class="label" x="48" y="305">Information Seeking</text>
<rect x="260" y="287" width="435.7" height="27" rx="9" fill="#4F8A7B"/>
<text class="pct" x="707.7" y="307">11.13%</text>
<text class="small" x="791.7" y="307">n=236</text>
<text class="label" x="48" y="351">Relational Stigma</text>
<rect x="260" y="333" width="378.6" height="27" rx="9" fill="#9C5A4E"/>
<text class="pct" x="650.6" y="353">9.67%</text>
<text class="small" x="734.6" y="353">n=205</text>
<text class="label" x="48" y="397">Cognitive Reframing</text>
<rect x="260" y="379" width="330.4" height="27" rx="9" fill="#4F8A7B"/>
<text class="pct" x="602.4" y="399">8.44%</text>
<text class="small" x="686.4" y="399">n=179</text>
<text class="label" x="48" y="443">Transmission Anxiety</text>
<rect x="260" y="425" width="243.5" height="27" rx="9" fill="#9C5A4E"/>
<text class="pct" x="515.5" y="445">6.22%</text>
<text class="small" x="599.5" y="445">n=132</text>
<text class="label" x="48" y="489">Confusion Uncertainty</text>
<rect x="260" y="471" width="164.4" height="27" rx="9" fill="#C37B2D"/>
<text class="pct" x="436.4" y="491">4.20%</text>
<text class="small" x="520.4" y="491">n=89</text>
<text class="label" x="48" y="535">Support Seeking</text>
<rect x="260" y="517" width="145.6" height="27" rx="9" fill="#4F8A7B"/>
<text class="pct" x="417.6" y="537">3.72%</text>
<text class="small" x="501.6" y="537">n=79</text>
<text class="label" x="48" y="581">Internalized Stigma</text>
<rect x="260" y="563" width="94.0" height="27" rx="9" fill="#9C5A4E"/>
<text class="pct" x="366.0" y="583">2.40%</text>
<text class="small" x="450.0" y="583">n=51</text>
<text class="label" x="48" y="627">Self Advocacy</text>
<rect x="260" y="609" width="72.0" height="27" rx="9" fill="#4F8A7B"/>
<text class="pct" x="344.0" y="629">1.84%</text>
<text class="small" x="428.0" y="629">n=39</text>
<rect x="48" y="697" width="18" height="18" rx="5" fill="#C37B2D"/>
<text class="legend" x="74" y="712">Distress</text>
<rect x="193" y="697" width="18" height="18" rx="5" fill="#4F8A7B"/>
<text class="legend" x="219" y="712">Coping</text>
<rect x="338" y="697" width="18" height="18" rx="5" fill="#9C5A4E"/>
<text class="legend" x="364" y="712">Stigma</text>
</svg>